<svg id="Layer_1" data-name="Layer 1" xmlns="http://www.w3.org/2000/svg" viewBox="0 0 133.34 37.87"><defs><style>.cls-1{fill:#6ad1b4;}</style></defs><title>followidea</title><path d="M9.74,0a17.41,17.41,0,0,1,3.39.29,11.81,11.81,0,0,1,2,.53L14.3,4.66a7.74,7.74,0,0,0-1.63-.56,11.18,11.18,0,0,0-2.59-.26Q7,3.84,5.71,5.54a7.64,7.64,0,0,0-1.25,4.59v2.16h9.6V16H4.46V37.25H0V10q0-4.8,2.35-7.41T9.74,0Z"/><path class="cls-1" d="M40.56,24.77a15.92,15.92,0,0,1-.86,5.37,12.36,12.36,0,0,1-2.43,4.13,10.78,10.78,0,0,1-3.72,2.67,12.37,12.37,0,0,1-9.41,0,10.78,10.78,0,0,1-3.72-2.67A12.34,12.34,0,0,1,18,30.14a15.68,15.68,0,0,1-.86-5.37A15.72,15.72,0,0,1,18,19.42a12.39,12.39,0,0,1,2.42-4.16,10.63,10.63,0,0,1,3.72-2.66,12.25,12.25,0,0,1,9.41,0,10.63,10.63,0,0,1,3.72,2.66,12.41,12.41,0,0,1,2.43,4.16A16,16,0,0,1,40.56,24.77Zm-4.66,0A10.77,10.77,0,0,0,34,18.07a6.16,6.16,0,0,0-5.16-2.47,6.14,6.14,0,0,0-5.16,2.47,10.71,10.71,0,0,0-1.9,6.7,10.68,10.68,0,0,0,1.9,6.69,6.15,6.15,0,0,0,5.16,2.48A6.17,6.17,0,0,0,34,31.46,10.74,10.74,0,0,0,35.9,24.77Z"/><path d="M54.34,37.73q-4.14-.1-5.86-1.78t-1.73-5.23V.77L51.22,0V30a7.1,7.1,0,0,0,.19,1.82A2.45,2.45,0,0,0,52,33a2.72,2.72,0,0,0,1.15.64A10.47,10.47,0,0,0,55,34Z"/><path d="M67.44,37.73c-2.75-.07-4.71-.66-5.86-1.78s-1.73-2.86-1.73-5.23V.77L64.32,0V30a7.1,7.1,0,0,0,.19,1.82A2.63,2.63,0,0,0,65.13,33a2.76,2.76,0,0,0,1.16.64,10.54,10.54,0,0,0,1.77.36Z"/><path class="cls-1" d="M95.09,24.77a15.67,15.67,0,0,1-.87,5.37,12.18,12.18,0,0,1-2.42,4.13,10.78,10.78,0,0,1-3.72,2.67,12.37,12.37,0,0,1-9.41,0A10.78,10.78,0,0,1,75,34.27a12.18,12.18,0,0,1-2.42-4.13,15.67,15.67,0,0,1-.87-5.37,15.72,15.72,0,0,1,.87-5.35A12.22,12.22,0,0,1,75,15.26a10.63,10.63,0,0,1,3.72-2.66,12.25,12.25,0,0,1,9.41,0,10.63,10.63,0,0,1,3.72,2.66,12.22,12.22,0,0,1,2.42,4.16A15.72,15.72,0,0,1,95.09,24.77Zm-4.66,0a10.71,10.71,0,0,0-1.9-6.7,6.62,6.62,0,0,0-10.32,0,10.77,10.77,0,0,0-1.89,6.7,10.74,10.74,0,0,0,1.89,6.69,6.61,6.61,0,0,0,10.32,0A10.68,10.68,0,0,0,90.43,24.77Z"/><path d="M121.15,37.25q-1.35-3.47-2.86-7.9t-2.76-9.24q-1.25,4.8-2.73,9.24c-1,3-1.94,5.59-2.83,7.9h-3.89q-2.2-4.95-4.32-11.28t-4-13.68h4.8q.48,2.25,1.16,4.89c.44,1.76.92,3.52,1.41,5.28s1,3.46,1.56,5.09,1.06,3.06,1.54,4.27q.81-2.25,1.61-4.77c.52-1.68,1-3.38,1.51-5.09s.93-3.39,1.37-5,.8-3.19,1.12-4.63h3.7c.29,1.44.64,3,1.06,4.63s.86,3.33,1.34,5,1,3.41,1.51,5.09,1.07,3.27,1.61,4.77c.48-1.21,1-2.64,1.51-4.27s1-3.33,1.56-5.09,1-3.52,1.44-5.28.83-3.39,1.15-4.89h4.61q-1.87,7.34-4,13.68T125,37.25Z"/><path class="cls-1" d="M28.2,27.64a3.8,3.8,0,0,0,1.51-2.87,3.8,3.8,0,0,0-1.51-2.88,4.88,4.88,0,0,0-3-1.15,1.31,1.31,0,0,0-1.07.43,1.63,1.63,0,0,0-.31,1.06A8,8,0,0,0,24,23.64a7.85,7.85,0,0,1,.15,1.13,6.06,6.06,0,0,1-.15,1c-.17.92-.36,2,.14,2.57a1.33,1.33,0,0,0,1.06.43A4.83,4.83,0,0,0,28.2,27.64Z"/><path class="cls-1" d="M33.49,27.72a1.42,1.42,0,0,0,.68-1.16,1.44,1.44,0,0,0-.68-1.16,2.82,2.82,0,0,0-3,0,1.44,1.44,0,0,0-.68,1.16,1.42,1.42,0,0,0,.68,1.16,2.82,2.82,0,0,0,3,0Z"/><path class="cls-1" d="M33.49,24.13a1.33,1.33,0,0,0,0-2.32,2.82,2.82,0,0,0-3,0,1.33,1.33,0,0,0,0,2.32,2.82,2.82,0,0,0,3,0Z"/><path class="cls-1" d="M30.09,30.7a1.21,1.21,0,0,0,.83-.72,1.13,1.13,0,0,0-.05-.88,1.81,1.81,0,0,0-1.06-.9,2,2,0,0,0-1.19-.05,1.21,1.21,0,0,0-.83.72,1.15,1.15,0,0,0-.06.37,1.17,1.17,0,0,0,.11.51,1.83,1.83,0,0,0,1.07.9h0A1.92,1.92,0,0,0,30.09,30.7Z"/><path class="cls-1" d="M29.81,21.34a1.81,1.81,0,0,0,1.06-.9,1.13,1.13,0,0,0,.05-.88,1.19,1.19,0,0,0-.83-.72,1.92,1.92,0,0,0-1.18.05h0a1.83,1.83,0,0,0-1.07.9,1.1,1.1,0,0,0-.11.5,1.21,1.21,0,0,0,.06.38,1.24,1.24,0,0,0,.83.72A2,2,0,0,0,29.81,21.34Z"/><path class="cls-1" d="M83.2,27.64a3.8,3.8,0,0,0,1.51-2.87,3.8,3.8,0,0,0-1.51-2.88,4.88,4.88,0,0,0-3-1.15,1.31,1.31,0,0,0-1.07.43,1.63,1.63,0,0,0-.31,1.06A8,8,0,0,0,79,23.64a7.85,7.85,0,0,1,.15,1.13,6.06,6.06,0,0,1-.15,1c-.17.92-.36,2,.14,2.57a1.33,1.33,0,0,0,1.06.43A4.83,4.83,0,0,0,83.2,27.64Z"/><path class="cls-1" d="M88.49,27.72a1.42,1.42,0,0,0,.68-1.16,1.44,1.44,0,0,0-.68-1.16,2.82,2.82,0,0,0-3,0,1.44,1.44,0,0,0-.68,1.16,1.42,1.42,0,0,0,.68,1.16,2.82,2.82,0,0,0,3,0Z"/><path class="cls-1" d="M88.49,24.13a1.33,1.33,0,0,0,0-2.32,2.82,2.82,0,0,0-3,0,1.33,1.33,0,0,0,0,2.32,2.82,2.82,0,0,0,3,0Z"/><path class="cls-1" d="M85.09,30.7a1.21,1.21,0,0,0,.83-.72,1.13,1.13,0,0,0,0-.88,1.81,1.81,0,0,0-1.06-.9,2,2,0,0,0-1.19-.05,1.21,1.21,0,0,0-.83.72,1.15,1.15,0,0,0-.06.37,1.17,1.17,0,0,0,.11.51,1.83,1.83,0,0,0,1.07.9h0A1.92,1.92,0,0,0,85.09,30.7Z"/><path class="cls-1" d="M84.81,21.34a1.81,1.81,0,0,0,1.06-.9,1.13,1.13,0,0,0,0-.88,1.19,1.19,0,0,0-.83-.72,1.92,1.92,0,0,0-1.18.05h0a1.83,1.83,0,0,0-1.07.9,1.1,1.1,0,0,0-.11.5,1.21,1.21,0,0,0,.06.38,1.24,1.24,0,0,0,.83.72A2,2,0,0,0,84.81,21.34Z"/></svg>