<svg id="Layer_1" data-name="Layer 1" xmlns="http://www.w3.org/2000/svg" viewBox="0 0 30.86 35.89"><defs><style>.cls-1{fill:#6ad1b4;}</style></defs><title>followidea</title><path class="cls-1" d="M13,26.54c2.91-2.41,4.52-5.46,4.52-8.59S15.89,11.77,13,9.35A14.5,14.5,0,0,0,4.14,5.89,4,4,0,0,0,.94,7.17,4.84,4.84,0,0,0,0,10.36a25,25,0,0,0,.53,4.23A20.71,20.71,0,0,1,1,18,20.55,20.55,0,0,1,.56,21C0,23.79-.54,26.91,1,28.72A4,4,0,0,0,4.14,30,14.52,14.52,0,0,0,13,26.54Z"/><path class="cls-1" d="M28.81,26.79a4.27,4.27,0,0,0,2.05-3.47,4.27,4.27,0,0,0-2.05-3.47,8,8,0,0,0-4.43-1.26A8,8,0,0,0,20,19.85a4.27,4.27,0,0,0-2.05,3.47A4.27,4.27,0,0,0,20,26.79a8,8,0,0,0,4.42,1.26A8,8,0,0,0,28.81,26.79Z"/><path class="cls-1" d="M28.81,16.05a4.29,4.29,0,0,0,2.05-3.47A4.29,4.29,0,0,0,28.81,9.1a8,8,0,0,0-4.43-1.25A8,8,0,0,0,20,9.1a4.29,4.29,0,0,0-2.05,3.48A4.29,4.29,0,0,0,20,16.05a8,8,0,0,0,4.42,1.26A8,8,0,0,0,28.81,16.05Z"/><path class="cls-1" d="M18.65,35.69a3.59,3.59,0,0,0,2.47-2.15A3.38,3.38,0,0,0,21,30.9a5.45,5.45,0,0,0-3.18-2.69,5.86,5.86,0,0,0-3.55-.14,3.61,3.61,0,0,0-2.48,2.15,3.21,3.21,0,0,0-.2,1.11,3.62,3.62,0,0,0,.35,1.52,5.42,5.42,0,0,0,3.18,2.69h0A5.86,5.86,0,0,0,18.65,35.69Z"/><path class="cls-1" d="M17.8,7.68A5.42,5.42,0,0,0,21,5a3.36,3.36,0,0,0,.14-2.63A3.59,3.59,0,0,0,18.65.21,5.86,5.86,0,0,0,15.1.36h0A5.4,5.4,0,0,0,11.92,3a3.66,3.66,0,0,0-.35,1.52,3.26,3.26,0,0,0,.2,1.12,3.63,3.63,0,0,0,2.48,2.15A5.86,5.86,0,0,0,17.8,7.68Z"/><path d="M8.86,9.41a6.91,6.91,0,0,1,1.59.15,3.62,3.62,0,0,1,.8.26L11,11.13a4.78,4.78,0,0,0-.76-.25,5.42,5.42,0,0,0-1.26-.13,2.83,2.83,0,0,0-2.29.82A4,4,0,0,0,6,14.17v1.25h4.83V16.7H6V27.42H4.45V14.12a5.09,5.09,0,0,1,1.08-3.53A4.29,4.29,0,0,1,8.86,9.41Z"/></svg>